# xmcd
#
# Track frame offsets:
#	150
#	16834
#	32572
#	50514
#	69470
#	85648
#	103372
#	120071
#	135656
#	153448
#	172371
#	188425
#
# Disc length: 2747 seconds
#
# Revision: 0
# Processed by: cddbd v1.5.1PL0 Copyright (c) Steve Scherf et al.
# Submitted via: audiograbber 1.83.01
#
DISCID=920ab90c
DTITLE=Carpenter, Mary Chapin - Chartbuster CBCDG-20139 Mary Chapin Carpenter V
DTITLE=ol 1
DYEAR=1900
DGENRE=Country
TTITLE0=I Feel Lucky (Voc)
TTITLE1=Down At The Twist And Shout (Voc)
TTITLE2=Shut Up And Kiss Me (Voc)
TTITLE3=He Thinks He'll Keep Her (Voc)
TTITLE4=Passionate Kisses (Voc)
TTITLE5=I Take My Chances (Voc)
TTITLE6=I Feel Lucky
TTITLE7=Down At The Twist And Shout
TTITLE8=Shut Up And Kiss Me
TTITLE9=He Thinks He'll Keep Her
TTITLE10=Passionate Kisses
TTITLE11=I Take My Chances
EXTD=
EXTT0=
EXTT1=
EXTT2=
EXTT3=
EXTT4=
EXTT5=
EXTT6=
EXTT7=
EXTT8=
EXTT9=
EXTT10=
EXTT11=
PLAYORDER=
